<mxfile host="Electron" agent="Mozilla/5.0 (X11; Linux x86_64) AppleWebKit/537.36 (KHTML, like Gecko) draw.io/26.0.4 Chrome/128.0.6613.186 Electron/32.2.5 Safari/537.36" version="26.0.4">
  <diagram name="Страница — 1" id="PM_JVEdk1nmzw4e6G_4z">
    <mxGraphModel dx="1392" dy="838" grid="1" gridSize="10" guides="1" tooltips="1" connect="1" arrows="1" fold="1" page="1" pageScale="1" pageWidth="827" pageHeight="1169" math="0" shadow="0">
      <root>
        <mxCell id="0" />
        <mxCell id="1" parent="0" />
        <mxCell id="S7h5uOJezQ1BebwOpSuD-1" value="" style="whiteSpace=wrap;html=1;aspect=fixed;" vertex="1" parent="1">
          <mxGeometry x="40" y="110" width="540" height="540" as="geometry" />
        </mxCell>
        <mxCell id="S7h5uOJezQ1BebwOpSuD-2" value="&lt;font style=&quot;font-size: 23px;&quot;&gt;Администратор&lt;/font&gt;" style="shape=actor;whiteSpace=wrap;html=1;" vertex="1" parent="1">
          <mxGeometry x="620" y="260" width="170" height="230" as="geometry" />
        </mxCell>
        <mxCell id="S7h5uOJezQ1BebwOpSuD-3" value="Зарегистрировать новый а\м" style="ellipse;whiteSpace=wrap;html=1;" vertex="1" parent="1">
          <mxGeometry x="60" y="130" width="120" height="80" as="geometry" />
        </mxCell>
        <mxCell id="S7h5uOJezQ1BebwOpSuD-4" value="Зафиксировать ДТП" style="ellipse;whiteSpace=wrap;html=1;" vertex="1" parent="1">
          <mxGeometry x="60" y="545" width="120" height="80" as="geometry" />
        </mxCell>
        <mxCell id="S7h5uOJezQ1BebwOpSuD-5" value="Просмотреть информацию по зарегистрированным а\м" style="ellipse;whiteSpace=wrap;html=1;" vertex="1" parent="1">
          <mxGeometry x="450" y="545" width="120" height="80" as="geometry" />
        </mxCell>
        <mxCell id="S7h5uOJezQ1BebwOpSuD-6" value="Просмотреть информацию о зафиксированных ДТП" style="ellipse;whiteSpace=wrap;html=1;" vertex="1" parent="1">
          <mxGeometry x="450" y="130" width="120" height="80" as="geometry" />
        </mxCell>
        <mxCell id="S7h5uOJezQ1BebwOpSuD-7" value="Просмотреть информацию о доступных и зарегистрированных гос.номерах" style="ellipse;whiteSpace=wrap;html=1;" vertex="1" parent="1">
          <mxGeometry x="260" y="320" width="120" height="80" as="geometry" />
        </mxCell>
        <mxCell id="S7h5uOJezQ1BebwOpSuD-9" value="&lt;font style=&quot;font-size: 8px;&quot;&gt;Личная информация о владельце&lt;/font&gt;" style="ellipse;whiteSpace=wrap;html=1;" vertex="1" parent="1">
          <mxGeometry x="240" y="120" width="70" height="50" as="geometry" />
        </mxCell>
        <mxCell id="S7h5uOJezQ1BebwOpSuD-10" value="&lt;font style=&quot;font-size: 10px;&quot;&gt;Технические характериситики а\м&lt;/font&gt;" style="ellipse;whiteSpace=wrap;html=1;" vertex="1" parent="1">
          <mxGeometry x="220" y="200" width="70" height="50" as="geometry" />
        </mxCell>
        <mxCell id="S7h5uOJezQ1BebwOpSuD-11" value="&lt;font style=&quot;font-size: 10px;&quot;&gt;Дата выпуска&lt;/font&gt;" style="ellipse;whiteSpace=wrap;html=1;" vertex="1" parent="1">
          <mxGeometry x="50" y="260" width="70" height="50" as="geometry" />
        </mxCell>
        <mxCell id="S7h5uOJezQ1BebwOpSuD-12" value="&lt;font style=&quot;font-size: 10px;&quot;&gt;Адрес проживания&lt;/font&gt;" style="ellipse;whiteSpace=wrap;html=1;" vertex="1" parent="1">
          <mxGeometry x="150" y="250" width="70" height="50" as="geometry" />
        </mxCell>
        <mxCell id="S7h5uOJezQ1BebwOpSuD-13" value="" style="endArrow=none;html=1;rounded=0;entryX=1;entryY=1;entryDx=0;entryDy=0;exitX=-0.014;exitY=0.428;exitDx=0;exitDy=0;exitPerimeter=0;dashed=1;startArrow=blockThin;startFill=0;" edge="1" parent="1" source="S7h5uOJezQ1BebwOpSuD-10" target="S7h5uOJezQ1BebwOpSuD-3">
          <mxGeometry width="50" height="50" relative="1" as="geometry">
            <mxPoint x="230" y="220" as="sourcePoint" />
            <mxPoint x="280" y="170" as="targetPoint" />
          </mxGeometry>
        </mxCell>
        <mxCell id="S7h5uOJezQ1BebwOpSuD-14" value="" style="endArrow=none;html=1;rounded=0;entryX=1.005;entryY=0.473;entryDx=0;entryDy=0;exitX=0.014;exitY=0.652;exitDx=0;exitDy=0;exitPerimeter=0;entryPerimeter=0;dashed=1;startArrow=blockThin;startFill=0;" edge="1" parent="1" source="S7h5uOJezQ1BebwOpSuD-9" target="S7h5uOJezQ1BebwOpSuD-3">
          <mxGeometry width="50" height="50" relative="1" as="geometry">
            <mxPoint x="229" y="221" as="sourcePoint" />
            <mxPoint x="172" y="208" as="targetPoint" />
            <Array as="points">
              <mxPoint x="200" y="160" />
            </Array>
          </mxGeometry>
        </mxCell>
        <mxCell id="S7h5uOJezQ1BebwOpSuD-15" value="" style="endArrow=none;html=1;rounded=0;entryX=0.718;entryY=0.963;entryDx=0;entryDy=0;entryPerimeter=0;exitX=0.243;exitY=0.028;exitDx=0;exitDy=0;exitPerimeter=0;dashed=1;endFill=0;startArrow=classic;startFill=0;" edge="1" parent="1" source="S7h5uOJezQ1BebwOpSuD-12" target="S7h5uOJezQ1BebwOpSuD-3">
          <mxGeometry width="50" height="50" relative="1" as="geometry">
            <mxPoint x="120" y="260" as="sourcePoint" />
            <mxPoint x="170" y="210" as="targetPoint" />
          </mxGeometry>
        </mxCell>
        <mxCell id="S7h5uOJezQ1BebwOpSuD-16" value="" style="endArrow=none;html=1;rounded=0;exitX=0.5;exitY=0;exitDx=0;exitDy=0;entryX=0.342;entryY=0.988;entryDx=0;entryDy=0;entryPerimeter=0;dashed=1;startArrow=blockThin;startFill=0;" edge="1" parent="1" source="S7h5uOJezQ1BebwOpSuD-11" target="S7h5uOJezQ1BebwOpSuD-3">
          <mxGeometry width="50" height="50" relative="1" as="geometry">
            <mxPoint x="80" y="270" as="sourcePoint" />
            <mxPoint x="130" y="220" as="targetPoint" />
          </mxGeometry>
        </mxCell>
        <mxCell id="S7h5uOJezQ1BebwOpSuD-21" value="&lt;font style=&quot;font-size: 9px;&quot;&gt;include&lt;/font&gt;" style="text;html=1;align=center;verticalAlign=middle;resizable=0;points=[];autosize=1;strokeColor=none;fillColor=none;" vertex="1" parent="1">
          <mxGeometry x="130" y="210" width="50" height="30" as="geometry" />
        </mxCell>
        <mxCell id="S7h5uOJezQ1BebwOpSuD-17" value="&lt;font style=&quot;font-size: 9px;&quot;&gt;include&lt;/font&gt;" style="text;html=1;align=center;verticalAlign=middle;resizable=0;points=[];autosize=1;strokeColor=none;fillColor=none;" vertex="1" parent="1">
          <mxGeometry x="184" y="137" width="50" height="30" as="geometry" />
        </mxCell>
        <mxCell id="S7h5uOJezQ1BebwOpSuD-20" value="&lt;font style=&quot;font-size: 9px;&quot;&gt;include&lt;/font&gt;" style="text;html=1;align=center;verticalAlign=middle;resizable=0;points=[];autosize=1;strokeColor=none;fillColor=none;" vertex="1" parent="1">
          <mxGeometry x="157" y="190" width="50" height="30" as="geometry" />
        </mxCell>
        <mxCell id="S7h5uOJezQ1BebwOpSuD-22" value="&lt;font style=&quot;font-size: 9px;&quot;&gt;include&lt;/font&gt;" style="text;html=1;align=center;verticalAlign=middle;resizable=0;points=[];autosize=1;strokeColor=none;fillColor=none;" vertex="1" parent="1">
          <mxGeometry x="70" y="210" width="50" height="30" as="geometry" />
        </mxCell>
        <mxCell id="S7h5uOJezQ1BebwOpSuD-23" value="Дата ДТП" style="ellipse;whiteSpace=wrap;html=1;" vertex="1" parent="1">
          <mxGeometry x="70" y="440" width="70" height="50" as="geometry" />
        </mxCell>
        <mxCell id="S7h5uOJezQ1BebwOpSuD-24" value="Адресс ДТП" style="ellipse;whiteSpace=wrap;html=1;" vertex="1" parent="1">
          <mxGeometry x="170" y="470" width="70" height="50" as="geometry" />
        </mxCell>
        <mxCell id="S7h5uOJezQ1BebwOpSuD-25" value="Отчетная информация по ДТП" style="ellipse;whiteSpace=wrap;html=1;" vertex="1" parent="1">
          <mxGeometry x="220" y="545" width="70" height="50" as="geometry" />
        </mxCell>
        <mxCell id="S7h5uOJezQ1BebwOpSuD-26" value="" style="endArrow=blockThin;html=1;rounded=0;exitX=0.394;exitY=-0.007;exitDx=0;exitDy=0;exitPerimeter=0;entryX=0.5;entryY=1;entryDx=0;entryDy=0;dashed=1;endFill=0;" edge="1" parent="1" source="S7h5uOJezQ1BebwOpSuD-4" target="S7h5uOJezQ1BebwOpSuD-23">
          <mxGeometry width="50" height="50" relative="1" as="geometry">
            <mxPoint x="90" y="550" as="sourcePoint" />
            <mxPoint x="140" y="500" as="targetPoint" />
          </mxGeometry>
        </mxCell>
        <mxCell id="S7h5uOJezQ1BebwOpSuD-27" value="" style="endArrow=blockThin;html=1;rounded=0;exitX=0.661;exitY=0.036;exitDx=0;exitDy=0;exitPerimeter=0;entryX=0;entryY=1;entryDx=0;entryDy=0;dashed=1;startArrow=none;startFill=0;endFill=0;" edge="1" parent="1" source="S7h5uOJezQ1BebwOpSuD-4" target="S7h5uOJezQ1BebwOpSuD-24">
          <mxGeometry width="50" height="50" relative="1" as="geometry">
            <mxPoint x="120" y="560" as="sourcePoint" />
            <mxPoint x="170" y="510" as="targetPoint" />
          </mxGeometry>
        </mxCell>
        <mxCell id="S7h5uOJezQ1BebwOpSuD-28" value="" style="endArrow=blockThin;html=1;rounded=0;exitX=0.951;exitY=0.279;exitDx=0;exitDy=0;exitPerimeter=0;dashed=1;endFill=0;" edge="1" parent="1" source="S7h5uOJezQ1BebwOpSuD-4">
          <mxGeometry width="50" height="50" relative="1" as="geometry">
            <mxPoint x="200" y="560" as="sourcePoint" />
            <mxPoint x="220" y="567" as="targetPoint" />
          </mxGeometry>
        </mxCell>
        <mxCell id="S7h5uOJezQ1BebwOpSuD-29" value="&lt;font style=&quot;font-size: 9px;&quot;&gt;include&lt;/font&gt;" style="text;html=1;align=center;verticalAlign=middle;resizable=0;points=[];autosize=1;strokeColor=none;fillColor=none;" vertex="1" parent="1">
          <mxGeometry x="80" y="500" width="50" height="30" as="geometry" />
        </mxCell>
        <mxCell id="S7h5uOJezQ1BebwOpSuD-30" value="&lt;font style=&quot;font-size: 9px;&quot;&gt;include&lt;/font&gt;" style="text;html=1;align=center;verticalAlign=middle;resizable=0;points=[];autosize=1;strokeColor=none;fillColor=none;" vertex="1" parent="1">
          <mxGeometry x="133" y="515" width="50" height="30" as="geometry" />
        </mxCell>
        <mxCell id="S7h5uOJezQ1BebwOpSuD-31" value="&lt;font style=&quot;font-size: 9px;&quot;&gt;include&lt;/font&gt;" style="text;html=1;align=center;verticalAlign=middle;resizable=0;points=[];autosize=1;strokeColor=none;fillColor=none;" vertex="1" parent="1">
          <mxGeometry x="170" y="547" width="50" height="30" as="geometry" />
        </mxCell>
        <mxCell id="S7h5uOJezQ1BebwOpSuD-32" value="Свободные номера" style="ellipse;whiteSpace=wrap;html=1;" vertex="1" parent="1">
          <mxGeometry x="110" y="347" width="80" height="40" as="geometry" />
        </mxCell>
        <mxCell id="S7h5uOJezQ1BebwOpSuD-33" value="Занятые номера" style="ellipse;whiteSpace=wrap;html=1;" vertex="1" parent="1">
          <mxGeometry x="277" y="450" width="90" height="50" as="geometry" />
        </mxCell>
        <mxCell id="S7h5uOJezQ1BebwOpSuD-34" value="" style="endArrow=none;html=1;rounded=0;exitX=1;exitY=0.5;exitDx=0;exitDy=0;entryX=-0.001;entryY=0.584;entryDx=0;entryDy=0;entryPerimeter=0;dashed=1;startArrow=blockThin;startFill=0;" edge="1" parent="1" source="S7h5uOJezQ1BebwOpSuD-32" target="S7h5uOJezQ1BebwOpSuD-7">
          <mxGeometry width="50" height="50" relative="1" as="geometry">
            <mxPoint x="220" y="420" as="sourcePoint" />
            <mxPoint x="270" y="370" as="targetPoint" />
          </mxGeometry>
        </mxCell>
        <mxCell id="S7h5uOJezQ1BebwOpSuD-35" value="" style="endArrow=none;html=1;rounded=0;exitX=0.435;exitY=-0.003;exitDx=0;exitDy=0;exitPerimeter=0;entryX=0.461;entryY=0.991;entryDx=0;entryDy=0;entryPerimeter=0;dashed=1;endFill=0;startArrow=blockThin;startFill=0;" edge="1" parent="1" source="S7h5uOJezQ1BebwOpSuD-33" target="S7h5uOJezQ1BebwOpSuD-7">
          <mxGeometry width="50" height="50" relative="1" as="geometry">
            <mxPoint x="250" y="460" as="sourcePoint" />
            <mxPoint x="300" y="410" as="targetPoint" />
          </mxGeometry>
        </mxCell>
        <mxCell id="S7h5uOJezQ1BebwOpSuD-36" value="&lt;font style=&quot;font-size: 9px;&quot;&gt;include&lt;/font&gt;" style="text;html=1;align=center;verticalAlign=middle;resizable=0;points=[];autosize=1;strokeColor=none;fillColor=none;" vertex="1" parent="1">
          <mxGeometry x="204" y="347" width="50" height="30" as="geometry" />
        </mxCell>
        <mxCell id="S7h5uOJezQ1BebwOpSuD-37" value="&lt;font style=&quot;font-size: 9px;&quot;&gt;include&lt;/font&gt;" style="text;html=1;align=center;verticalAlign=middle;resizable=0;points=[];autosize=1;strokeColor=none;fillColor=none;" vertex="1" parent="1">
          <mxGeometry x="290" y="410" width="50" height="30" as="geometry" />
        </mxCell>
        <mxCell id="S7h5uOJezQ1BebwOpSuD-38" value="Дата ДТП" style="ellipse;whiteSpace=wrap;html=1;" vertex="1" parent="1">
          <mxGeometry x="300" y="160" width="80" height="50" as="geometry" />
        </mxCell>
        <mxCell id="S7h5uOJezQ1BebwOpSuD-39" value="Адресс ДТП" style="ellipse;whiteSpace=wrap;html=1;" vertex="1" parent="1">
          <mxGeometry x="480" y="290" width="80" height="50" as="geometry" />
        </mxCell>
        <mxCell id="S7h5uOJezQ1BebwOpSuD-40" value="Отчетная информация по ДТП" style="ellipse;whiteSpace=wrap;html=1;" vertex="1" parent="1">
          <mxGeometry x="370" y="240" width="80" height="50" as="geometry" />
        </mxCell>
        <mxCell id="S7h5uOJezQ1BebwOpSuD-41" value="" style="endArrow=none;html=1;rounded=0;entryX=0.035;entryY=0.302;entryDx=0;entryDy=0;entryPerimeter=0;dashed=1;exitX=0.934;exitY=0.26;exitDx=0;exitDy=0;exitPerimeter=0;startArrow=blockThin;startFill=0;" edge="1" parent="1" source="S7h5uOJezQ1BebwOpSuD-38" target="S7h5uOJezQ1BebwOpSuD-6">
          <mxGeometry width="50" height="50" relative="1" as="geometry">
            <mxPoint x="380" y="173" as="sourcePoint" />
            <mxPoint x="440" y="190" as="targetPoint" />
          </mxGeometry>
        </mxCell>
        <mxCell id="S7h5uOJezQ1BebwOpSuD-42" value="" style="endArrow=none;html=1;rounded=0;entryX=0;entryY=1;entryDx=0;entryDy=0;exitX=0.766;exitY=0.066;exitDx=0;exitDy=0;exitPerimeter=0;dashed=1;startArrow=blockThin;startFill=0;" edge="1" parent="1" source="S7h5uOJezQ1BebwOpSuD-40" target="S7h5uOJezQ1BebwOpSuD-6">
          <mxGeometry width="50" height="50" relative="1" as="geometry">
            <mxPoint x="390" y="240" as="sourcePoint" />
            <mxPoint x="440" y="190" as="targetPoint" />
          </mxGeometry>
        </mxCell>
        <mxCell id="S7h5uOJezQ1BebwOpSuD-43" value="" style="endArrow=none;html=1;rounded=0;entryX=0.582;entryY=1.002;entryDx=0;entryDy=0;entryPerimeter=0;exitX=0.5;exitY=0;exitDx=0;exitDy=0;dashed=1;startArrow=blockThin;startFill=0;" edge="1" parent="1" source="S7h5uOJezQ1BebwOpSuD-39" target="S7h5uOJezQ1BebwOpSuD-6">
          <mxGeometry width="50" height="50" relative="1" as="geometry">
            <mxPoint x="450" y="290" as="sourcePoint" />
            <mxPoint x="500" y="240" as="targetPoint" />
          </mxGeometry>
        </mxCell>
        <mxCell id="S7h5uOJezQ1BebwOpSuD-44" value="&lt;font style=&quot;font-size: 9px;&quot;&gt;include&lt;/font&gt;" style="text;html=1;align=center;verticalAlign=middle;resizable=0;points=[];autosize=1;strokeColor=none;fillColor=none;" vertex="1" parent="1">
          <mxGeometry x="389" y="147" width="50" height="30" as="geometry" />
        </mxCell>
        <mxCell id="S7h5uOJezQ1BebwOpSuD-46" value="&lt;font style=&quot;font-size: 9px;&quot;&gt;include&lt;/font&gt;" style="text;html=1;align=center;verticalAlign=middle;resizable=0;points=[];autosize=1;strokeColor=none;fillColor=none;" vertex="1" parent="1">
          <mxGeometry x="427" y="200" width="50" height="30" as="geometry" />
        </mxCell>
        <mxCell id="S7h5uOJezQ1BebwOpSuD-47" value="&lt;font style=&quot;font-size: 9px;&quot;&gt;include&lt;/font&gt;" style="text;html=1;align=center;verticalAlign=middle;resizable=0;points=[];autosize=1;strokeColor=none;fillColor=none;" vertex="1" parent="1">
          <mxGeometry x="496" y="230" width="50" height="30" as="geometry" />
        </mxCell>
        <mxCell id="S7h5uOJezQ1BebwOpSuD-50" value="&lt;font style=&quot;font-size: 8px;&quot;&gt;Личная информация о владельце&lt;/font&gt;" style="ellipse;whiteSpace=wrap;html=1;" vertex="1" parent="1">
          <mxGeometry x="490" y="360" width="70" height="50" as="geometry" />
        </mxCell>
        <mxCell id="S7h5uOJezQ1BebwOpSuD-51" value="&lt;font style=&quot;font-size: 10px;&quot;&gt;Технические характериситики а\м&lt;/font&gt;" style="ellipse;whiteSpace=wrap;html=1;" vertex="1" parent="1">
          <mxGeometry x="400" y="387" width="70" height="50" as="geometry" />
        </mxCell>
        <mxCell id="S7h5uOJezQ1BebwOpSuD-52" value="&lt;font style=&quot;font-size: 10px;&quot;&gt;Адрес проживания&lt;/font&gt;" style="ellipse;whiteSpace=wrap;html=1;" vertex="1" parent="1">
          <mxGeometry x="367" y="470" width="70" height="50" as="geometry" />
        </mxCell>
        <mxCell id="S7h5uOJezQ1BebwOpSuD-53" value="&lt;font style=&quot;font-size: 10px;&quot;&gt;Дата выпуска&lt;/font&gt;" style="ellipse;whiteSpace=wrap;html=1;" vertex="1" parent="1">
          <mxGeometry x="300" y="547" width="70" height="50" as="geometry" />
        </mxCell>
        <mxCell id="S7h5uOJezQ1BebwOpSuD-54" value="" style="endArrow=blockThin;html=1;rounded=0;exitX=0.5;exitY=0;exitDx=0;exitDy=0;entryX=1;entryY=1;entryDx=0;entryDy=0;dashed=1;startArrow=none;startFill=0;endFill=0;" edge="1" parent="1" source="S7h5uOJezQ1BebwOpSuD-5" target="S7h5uOJezQ1BebwOpSuD-51">
          <mxGeometry width="50" height="50" relative="1" as="geometry">
            <mxPoint x="480" y="510" as="sourcePoint" />
            <mxPoint x="530" y="460" as="targetPoint" />
          </mxGeometry>
        </mxCell>
        <mxCell id="S7h5uOJezQ1BebwOpSuD-55" value="" style="endArrow=blockThin;html=1;rounded=0;exitX=0.696;exitY=0.036;exitDx=0;exitDy=0;exitPerimeter=0;entryX=0.614;entryY=1.026;entryDx=0;entryDy=0;entryPerimeter=0;dashed=1;startArrow=none;startFill=0;endFill=0;" edge="1" parent="1" source="S7h5uOJezQ1BebwOpSuD-5" target="S7h5uOJezQ1BebwOpSuD-50">
          <mxGeometry width="50" height="50" relative="1" as="geometry">
            <mxPoint x="510" y="500" as="sourcePoint" />
            <mxPoint x="560" y="450" as="targetPoint" />
          </mxGeometry>
        </mxCell>
        <mxCell id="S7h5uOJezQ1BebwOpSuD-56" value="" style="endArrow=none;html=1;rounded=0;exitX=1;exitY=1;exitDx=0;exitDy=0;entryX=0;entryY=0;entryDx=0;entryDy=0;dashed=1;startArrow=blockThin;startFill=0;" edge="1" parent="1" source="S7h5uOJezQ1BebwOpSuD-52" target="S7h5uOJezQ1BebwOpSuD-5">
          <mxGeometry width="50" height="50" relative="1" as="geometry">
            <mxPoint x="420" y="570" as="sourcePoint" />
            <mxPoint x="470" y="520" as="targetPoint" />
          </mxGeometry>
        </mxCell>
        <mxCell id="S7h5uOJezQ1BebwOpSuD-57" value="" style="endArrow=none;html=1;rounded=0;exitX=1;exitY=0.5;exitDx=0;exitDy=0;entryX=-0.008;entryY=0.429;entryDx=0;entryDy=0;entryPerimeter=0;dashed=1;startArrow=blockThin;startFill=0;" edge="1" parent="1" source="S7h5uOJezQ1BebwOpSuD-53" target="S7h5uOJezQ1BebwOpSuD-5">
          <mxGeometry width="50" height="50" relative="1" as="geometry">
            <mxPoint x="370" y="600" as="sourcePoint" />
            <mxPoint x="420" y="550" as="targetPoint" />
          </mxGeometry>
        </mxCell>
        <mxCell id="S7h5uOJezQ1BebwOpSuD-58" value="&lt;font style=&quot;font-size: 9px;&quot;&gt;include&lt;/font&gt;" style="text;html=1;align=center;verticalAlign=middle;resizable=0;points=[];autosize=1;strokeColor=none;fillColor=none;" vertex="1" parent="1">
          <mxGeometry x="510" y="460" width="50" height="30" as="geometry" />
        </mxCell>
        <mxCell id="S7h5uOJezQ1BebwOpSuD-60" value="&lt;font style=&quot;font-size: 9px;&quot;&gt;include&lt;/font&gt;" style="text;html=1;align=center;verticalAlign=middle;resizable=0;points=[];autosize=1;strokeColor=none;fillColor=none;" vertex="1" parent="1">
          <mxGeometry x="454" y="460" width="50" height="30" as="geometry" />
        </mxCell>
        <mxCell id="S7h5uOJezQ1BebwOpSuD-61" value="&lt;font style=&quot;font-size: 9px;&quot;&gt;include&lt;/font&gt;" style="text;html=1;align=center;verticalAlign=middle;resizable=0;points=[];autosize=1;strokeColor=none;fillColor=none;" vertex="1" parent="1">
          <mxGeometry x="421" y="521" width="50" height="30" as="geometry" />
        </mxCell>
        <mxCell id="S7h5uOJezQ1BebwOpSuD-62" value="&lt;font style=&quot;font-size: 9px;&quot;&gt;include&lt;/font&gt;" style="text;html=1;align=center;verticalAlign=middle;resizable=0;points=[];autosize=1;strokeColor=none;fillColor=none;" vertex="1" parent="1">
          <mxGeometry x="388" y="553.5" width="50" height="30" as="geometry" />
        </mxCell>
        <mxCell id="S7h5uOJezQ1BebwOpSuD-63" value="" style="endArrow=oval;html=1;rounded=0;entryX=0.25;entryY=1;entryDx=0;entryDy=0;exitX=0.903;exitY=0.775;exitDx=0;exitDy=0;exitPerimeter=0;endFill=0;startArrow=blockThin;startFill=0;movable=0;resizable=0;rotatable=0;deletable=0;editable=0;locked=1;connectable=0;" edge="1" parent="1">
          <mxGeometry width="50" height="50" relative="1" as="geometry">
            <mxPoint x="558.3600000000001" y="611" as="sourcePoint" />
            <mxPoint x="662.5" y="494" as="targetPoint" />
            <Array as="points">
              <mxPoint x="663" y="612" />
            </Array>
          </mxGeometry>
        </mxCell>
        <mxCell id="S7h5uOJezQ1BebwOpSuD-64" value="" style="endArrow=oval;html=1;rounded=0;entryX=0.466;entryY=1.009;entryDx=0;entryDy=0;entryPerimeter=0;exitX=0.736;exitY=0.973;exitDx=0;exitDy=0;exitPerimeter=0;startArrow=block;startFill=0;endFill=0;movable=0;resizable=0;rotatable=0;deletable=0;editable=0;locked=1;connectable=0;" edge="1" parent="1">
          <mxGeometry width="50" height="50" relative="1" as="geometry">
            <mxPoint x="148.32000000000005" y="624.84" as="sourcePoint" />
            <mxPoint x="699.22" y="494.06999999999994" as="targetPoint" />
            <Array as="points">
              <mxPoint x="150" y="712" />
              <mxPoint x="700" y="712" />
            </Array>
          </mxGeometry>
        </mxCell>
        <mxCell id="S7h5uOJezQ1BebwOpSuD-65" value="" style="endArrow=oval;html=1;rounded=0;exitX=1;exitY=1;exitDx=0;exitDy=0;endFill=0;startArrow=blockThin;startFill=0;movable=0;resizable=0;rotatable=0;deletable=0;editable=0;locked=1;connectable=0;entryX=0.593;entryY=1.012;entryDx=0;entryDy=0;entryPerimeter=0;" edge="1" parent="1">
          <mxGeometry width="50" height="50" relative="1" as="geometry">
            <mxPoint x="552.4264068711929" y="199.28427124746185" as="sourcePoint" />
            <mxPoint x="720.8100000000002" y="493.76" as="targetPoint" />
            <Array as="points">
              <mxPoint x="820" y="201" />
              <mxPoint x="820" y="561" />
              <mxPoint x="720" y="561" />
            </Array>
          </mxGeometry>
        </mxCell>
        <mxCell id="S7h5uOJezQ1BebwOpSuD-66" value="" style="endArrow=oval;html=1;rounded=0;entryX=0.064;entryY=1.012;entryDx=0;entryDy=0;entryPerimeter=0;exitX=1;exitY=0;exitDx=0;exitDy=0;startArrow=blockThin;startFill=0;endFill=0;movable=0;resizable=0;rotatable=0;deletable=0;editable=0;locked=1;connectable=0;" edge="1" parent="1">
          <mxGeometry width="50" height="50" relative="1" as="geometry">
            <mxPoint x="162.42640687119285" y="142.71572875253804" as="sourcePoint" />
            <mxPoint x="630.8800000000001" y="493.76" as="targetPoint" />
            <Array as="points">
              <mxPoint x="162" y="81" />
              <mxPoint x="600" y="81" />
              <mxPoint x="600" y="521" />
              <mxPoint x="631" y="521" />
            </Array>
          </mxGeometry>
        </mxCell>
        <mxCell id="S7h5uOJezQ1BebwOpSuD-67" value="" style="endArrow=oval;html=1;rounded=0;exitX=0;exitY=1;exitDx=0;exitDy=0;endFill=0;startArrow=blockThin;startFill=0;entryX=0.147;entryY=1;entryDx=0;entryDy=0;entryPerimeter=0;movable=0;resizable=0;rotatable=0;deletable=0;editable=0;locked=1;connectable=0;" edge="1" parent="1" source="S7h5uOJezQ1BebwOpSuD-7">
          <mxGeometry width="50" height="50" relative="1" as="geometry">
            <mxPoint x="277.00359312880727" y="390.1442712474619" as="sourcePoint" />
            <mxPoint x="644.99" y="494" as="targetPoint" />
            <Array as="points">
              <mxPoint x="279.43" y="681.86" />
              <mxPoint x="645.43" y="681.86" />
            </Array>
          </mxGeometry>
        </mxCell>
      </root>
    </mxGraphModel>
  </diagram>
</mxfile>
